<?xml version="1.0" encoding="UTF-8"?>
<!DOCTYPE svg
PUBLIC "-//W3C//DTD SVG 1.1//EN"
       "http://www.w3.org/Graphics/SVG/1.1/DTD/svg11.dtd">
<svg viewBox="28 4 1408 779" width="1380px" height="775px" xmlns="http://www.w3.org/2000/svg" version="1.1">
   <line x1="219" y1="99" x2="229" y2="99" style="stroke:#c00;stroke-width:1;"/>
   <line x1="939" y1="390" x2="949" y2="390" style="stroke:#c00;stroke-width:1;"/>
   <line x1="229" y1="99" x2="939" y2="390" style="stroke:#c00;stroke-width:1;"/>
   <line x1="226.5" y1="99" x2="222.96446609407" y2="102.53553390593" style="stroke:#c00;stroke-width:2;"/>
   <line x1="226.5" y1="99" x2="222.96446609407" y2="95.464466094067" style="stroke:#c00;stroke-width:2;"/>
   <line x1="944" y1="390" x2="940.46446609407" y2="393.53553390593" style="stroke:#c00;stroke-width:2;"/>
   <line x1="944" y1="390" x2="940.46446609407" y2="386.46446609407" style="stroke:#c00;stroke-width:2;"/>
   <line x1="219" y1="79" x2="229" y2="79" style="stroke:#0bf;stroke-width:1;"/>
   <line x1="1263" y1="130" x2="1273" y2="130" style="stroke:#0bf;stroke-width:1;"/>
   <line x1="229" y1="79" x2="1263" y2="130" style="stroke:#0bf;stroke-width:1;"/>
   <line x1="226.5" y1="79" x2="222.96446609407" y2="82.535533905933" style="stroke:#0bf;stroke-width:2;"/>
   <line x1="226.5" y1="79" x2="222.96446609407" y2="75.464466094067" style="stroke:#0bf;stroke-width:2;"/>
   <line x1="1268" y1="130" x2="1264.4644660941" y2="133.53553390593" style="stroke:#0bf;stroke-width:2;"/>
   <line x1="1268" y1="130" x2="1264.4644660941" y2="126.46446609407" style="stroke:#0bf;stroke-width:2;"/>
   <line x1="617" y1="329" x2="607" y2="329" style="stroke:#333;stroke-width:1;"/>
   <line x1="503" y1="335" x2="493" y2="335" style="stroke:#333;stroke-width:1;"/>
   <line x1="607" y1="329" x2="503" y2="335" style="stroke:#333;stroke-width:1;"/>
   <line x1="609.5" y1="329" x2="613.03553390593" y2="332.53553390593" style="stroke:#333;stroke-width:2;"/>
   <line x1="609.5" y1="329" x2="613.03553390593" y2="325.46446609407" style="stroke:#333;stroke-width:2;"/>
   <line x1="498" y1="335" x2="501.53553390593" y2="338.53553390593" style="stroke:#333;stroke-width:2;"/>
   <line x1="498" y1="335" x2="501.53553390593" y2="331.46446609407" style="stroke:#333;stroke-width:2;"/>
   <line x1="755" y1="349" x2="765" y2="349" style="stroke:#c00;stroke-width:1;"/>
   <line x1="947" y1="574" x2="957" y2="574" style="stroke:#c00;stroke-width:1;"/>
   <line x1="765" y1="349" x2="947" y2="574" style="stroke:#c00;stroke-width:1;"/>
   <line x1="762.5" y1="349" x2="758.96446609407" y2="352.53553390593" style="stroke:#c00;stroke-width:2;"/>
   <line x1="762.5" y1="349" x2="758.96446609407" y2="345.46446609407" style="stroke:#c00;stroke-width:2;"/>
   <line x1="952" y1="574" x2="948.46446609407" y2="577.53553390593" style="stroke:#c00;stroke-width:2;"/>
   <line x1="952" y1="574" x2="948.46446609407" y2="570.46446609407" style="stroke:#c00;stroke-width:2;"/>
   <line x1="979" y1="107" x2="969" y2="107" style="stroke:#cb0;stroke-width:1;"/>
   <line x1="770" y1="479" x2="760" y2="479" style="stroke:#cb0;stroke-width:1;"/>
   <line x1="969" y1="107" x2="770" y2="479" style="stroke:#cb0;stroke-width:1;"/>
   <line x1="971.5" y1="107" x2="975.03553390593" y2="110.53553390593" style="stroke:#cb0;stroke-width:2;"/>
   <line x1="971.5" y1="107" x2="975.03553390593" y2="103.46446609407" style="stroke:#cb0;stroke-width:2;"/>
   <line x1="765" y1="479" x2="768.53553390593" y2="482.53553390593" style="stroke:#cb0;stroke-width:2;"/>
   <line x1="765" y1="479" x2="768.53553390593" y2="475.46446609407" style="stroke:#cb0;stroke-width:2;"/>
   <line x1="979" y1="87" x2="969" y2="87" style="stroke:#0bf;stroke-width:1;"/>
   <line x1="947" y1="574" x2="957" y2="574" style="stroke:#0bf;stroke-width:1;"/>
   <line x1="969" y1="87" x2="947" y2="574" style="stroke:#0bf;stroke-width:1;"/>
   <line x1="971.5" y1="87" x2="975.03553390593" y2="90.535533905933" style="stroke:#0bf;stroke-width:2;"/>
   <line x1="971.5" y1="87" x2="975.03553390593" y2="83.464466094067" style="stroke:#0bf;stroke-width:2;"/>
   <line x1="952" y1="574" x2="948.46446609407" y2="577.53553390593" style="stroke:#0bf;stroke-width:2;"/>
   <line x1="952" y1="574" x2="948.46446609407" y2="570.46446609407" style="stroke:#0bf;stroke-width:2;"/>
   <line x1="43" y1="359" x2="33" y2="359" style="stroke:#0bf;stroke-width:1;"/>
   <line x1="33" y1="660" x2="43" y2="660" style="stroke:#0bf;stroke-width:1;"/>
   <line x1="33" y1="359" x2="33" y2="660" style="stroke:#0bf;stroke-width:1;"/>
   <line x1="35.5" y1="359" x2="39.035533905933" y2="362.53553390593" style="stroke:#0bf;stroke-width:2;"/>
   <line x1="35.5" y1="359" x2="39.035533905933" y2="355.46446609407" style="stroke:#0bf;stroke-width:2;"/>
   <line x1="38" y1="660" x2="34.464466094067" y2="663.53553390593" style="stroke:#0bf;stroke-width:2;"/>
   <line x1="38" y1="660" x2="34.464466094067" y2="656.46446609407" style="stroke:#0bf;stroke-width:2;"/>
   <line x1="195" y1="379" x2="205" y2="379" style="stroke:#bbb;stroke-width:1;"/>
   <line x1="947" y1="574" x2="957" y2="574" style="stroke:#bbb;stroke-width:1;"/>
   <line x1="205" y1="379" x2="947" y2="574" style="stroke:#bbb;stroke-width:1;"/>
   <line x1="202.5" y1="379" x2="198.96446609407" y2="382.53553390593" style="stroke:#bbb;stroke-width:2;"/>
   <line x1="202.5" y1="379" x2="198.96446609407" y2="375.46446609407" style="stroke:#bbb;stroke-width:2;"/>
   <line x1="952" y1="574" x2="948.46446609407" y2="577.53553390593" style="stroke:#bbb;stroke-width:2;"/>
   <line x1="952" y1="574" x2="948.46446609407" y2="570.46446609407" style="stroke:#bbb;stroke-width:2;"/>
   <line x1="145" y1="522" x2="155" y2="522" style="stroke:#0b0;stroke-width:1;"/>
   <line x1="939" y1="390" x2="949" y2="390" style="stroke:#0b0;stroke-width:1;"/>
   <line x1="155" y1="522" x2="939" y2="390" style="stroke:#0b0;stroke-width:1;"/>
   <line x1="152.5" y1="522" x2="148.96446609407" y2="525.53553390593" style="stroke:#0b0;stroke-width:2;"/>
   <line x1="152.5" y1="522" x2="148.96446609407" y2="518.46446609407" style="stroke:#0b0;stroke-width:2;"/>
   <line x1="944" y1="390" x2="940.46446609407" y2="393.53553390593" style="stroke:#0b0;stroke-width:2;"/>
   <line x1="944" y1="390" x2="940.46446609407" y2="386.46446609407" style="stroke:#0b0;stroke-width:2;"/>
   <line x1="1130" y1="248" x2="1140" y2="248" style="stroke:#0bf;stroke-width:1;"/>
   <line x1="1252" y1="451" x2="1262" y2="451" style="stroke:#0bf;stroke-width:1;"/>
   <line x1="1140" y1="248" x2="1252" y2="451" style="stroke:#0bf;stroke-width:1;"/>
   <line x1="1137.5" y1="248" x2="1133.9644660941" y2="251.53553390593" style="stroke:#0bf;stroke-width:2;"/>
   <line x1="1137.5" y1="248" x2="1133.9644660941" y2="244.46446609407" style="stroke:#0bf;stroke-width:2;"/>
   <line x1="1257" y1="451" x2="1253.4644660941" y2="454.53553390593" style="stroke:#0bf;stroke-width:2;"/>
   <line x1="1257" y1="451" x2="1253.4644660941" y2="447.46446609407" style="stroke:#0bf;stroke-width:2;"/>
   <line x1="979" y1="268" x2="969" y2="268" style="stroke:#b0b;stroke-width:1;"/>
   <line x1="947" y1="574" x2="957" y2="574" style="stroke:#b0b;stroke-width:1;"/>
   <line x1="969" y1="268" x2="947" y2="574" style="stroke:#b0b;stroke-width:1;"/>
   <line x1="971.5" y1="268" x2="975.03553390593" y2="271.53553390593" style="stroke:#b0b;stroke-width:2;"/>
   <line x1="971.5" y1="268" x2="975.03553390593" y2="264.46446609407" style="stroke:#b0b;stroke-width:2;"/>
   <line x1="952" y1="574" x2="948.46446609407" y2="577.53553390593" style="stroke:#b0b;stroke-width:2;"/>
   <line x1="952" y1="574" x2="948.46446609407" y2="570.46446609407" style="stroke:#b0b;stroke-width:2;"/>
   <line x1="334" y1="676" x2="324" y2="676" style="stroke:#cb0;stroke-width:1;"/>
   <line x1="195" y1="213" x2="185" y2="213" style="stroke:#cb0;stroke-width:1;"/>
   <line x1="324" y1="676" x2="195" y2="213" style="stroke:#cb0;stroke-width:1;"/>
   <line x1="326.5" y1="676" x2="330.03553390593" y2="679.53553390593" style="stroke:#cb0;stroke-width:2;"/>
   <line x1="326.5" y1="676" x2="330.03553390593" y2="672.46446609407" style="stroke:#cb0;stroke-width:2;"/>
   <line x1="190" y1="213" x2="193.53553390593" y2="216.53553390593" style="stroke:#cb0;stroke-width:2;"/>
   <line x1="190" y1="213" x2="193.53553390593" y2="209.46446609407" style="stroke:#cb0;stroke-width:2;"/>
   <line x1="459" y1="656" x2="469" y2="656" style="stroke:#b0b;stroke-width:1;"/>
   <line x1="947" y1="574" x2="957" y2="574" style="stroke:#b0b;stroke-width:1;"/>
   <line x1="469" y1="656" x2="947" y2="574" style="stroke:#b0b;stroke-width:1;"/>
   <line x1="466.5" y1="656" x2="462.96446609407" y2="659.53553390593" style="stroke:#b0b;stroke-width:2;"/>
   <line x1="466.5" y1="656" x2="462.96446609407" y2="652.46446609407" style="stroke:#b0b;stroke-width:2;"/>
   <line x1="952" y1="574" x2="948.46446609407" y2="577.53553390593" style="stroke:#b0b;stroke-width:2;"/>
   <line x1="952" y1="574" x2="948.46446609407" y2="570.46446609407" style="stroke:#b0b;stroke-width:2;"/>
   <line x1="957" y1="734" x2="947" y2="734" style="stroke:#0b0;stroke-width:1;"/>
   <line x1="857" y1="609" x2="847" y2="609" style="stroke:#0b0;stroke-width:1;"/>
   <line x1="947" y1="734" x2="857" y2="609" style="stroke:#0b0;stroke-width:1;"/>
   <line x1="949.5" y1="734" x2="953.03553390593" y2="737.53553390593" style="stroke:#0b0;stroke-width:2;"/>
   <line x1="949.5" y1="734" x2="953.03553390593" y2="730.46446609407" style="stroke:#0b0;stroke-width:2;"/>
   <line x1="852" y1="609" x2="855.53553390593" y2="612.53553390593" style="stroke:#0b0;stroke-width:2;"/>
   <line x1="852" y1="609" x2="855.53553390593" y2="605.46446609407" style="stroke:#0b0;stroke-width:2;"/>
   <line x1="957" y1="634" x2="947" y2="634" style="stroke:#c00;stroke-width:1;"/>
   <line x1="501" y1="496" x2="491" y2="496" style="stroke:#c00;stroke-width:1;"/>
   <line x1="947" y1="634" x2="501" y2="496" style="stroke:#c00;stroke-width:1;"/>
   <line x1="949.5" y1="634" x2="953.03553390593" y2="637.53553390593" style="stroke:#c00;stroke-width:2;"/>
   <line x1="949.5" y1="634" x2="953.03553390593" y2="630.46446609407" style="stroke:#c00;stroke-width:2;"/>
   <line x1="496" y1="496" x2="499.53553390593" y2="499.53553390593" style="stroke:#c00;stroke-width:2;"/>
   <line x1="496" y1="496" x2="499.53553390593" y2="492.46446609407" style="stroke:#c00;stroke-width:2;"/>
   <line x1="1242" y1="684" x2="1232" y2="684" style="stroke:#0bf;stroke-width:1;"/>
   <line x1="1263" y1="130" x2="1273" y2="130" style="stroke:#0bf;stroke-width:1;"/>
   <line x1="1232" y1="684" x2="1263" y2="130" style="stroke:#0bf;stroke-width:1;"/>
   <line x1="1234.5" y1="684" x2="1238.0355339059" y2="687.53553390593" style="stroke:#0bf;stroke-width:2;"/>
   <line x1="1234.5" y1="684" x2="1238.0355339059" y2="680.46446609407" style="stroke:#0bf;stroke-width:2;"/>
   <line x1="1268" y1="130" x2="1264.4644660941" y2="133.53553390593" style="stroke:#0bf;stroke-width:2;"/>
   <line x1="1268" y1="130" x2="1264.4644660941" y2="126.46446609407" style="stroke:#0bf;stroke-width:2;"/>
   <line x1="1242" y1="704" x2="1232" y2="704" style="stroke:#333;stroke-width:1;"/>
   <line x1="1116" y1="574" x2="1106" y2="574" style="stroke:#333;stroke-width:1;"/>
   <line x1="1232" y1="704" x2="1116" y2="574" style="stroke:#333;stroke-width:1;"/>
   <line x1="1234.5" y1="704" x2="1238.0355339059" y2="707.53553390593" style="stroke:#333;stroke-width:2;"/>
   <line x1="1234.5" y1="704" x2="1238.0355339059" y2="700.46446609407" style="stroke:#333;stroke-width:2;"/>
   <line x1="1111" y1="574" x2="1114.5355339059" y2="577.53553390593" style="stroke:#333;stroke-width:2;"/>
   <line x1="1111" y1="574" x2="1114.5355339059" y2="570.46446609407" style="stroke:#333;stroke-width:2;"/>
   <line x1="1272" y1="291" x2="1262" y2="291" style="stroke:#b0b;stroke-width:1;"/>
   <line x1="1114" y1="390" x2="1104" y2="390" style="stroke:#b0b;stroke-width:1;"/>
   <line x1="1262" y1="291" x2="1114" y2="390" style="stroke:#b0b;stroke-width:1;"/>
   <line x1="1264.5" y1="291" x2="1268.0355339059" y2="294.53553390593" style="stroke:#b0b;stroke-width:2;"/>
   <line x1="1264.5" y1="291" x2="1268.0355339059" y2="287.46446609407" style="stroke:#b0b;stroke-width:2;"/>
   <line x1="1109" y1="390" x2="1112.5355339059" y2="393.53553390593" style="stroke:#b0b;stroke-width:2;"/>
   <line x1="1109" y1="390" x2="1112.5355339059" y2="386.46446609407" style="stroke:#b0b;stroke-width:2;"/>
   <line x1="588" y1="241" x2="578" y2="241" style="stroke:#bbb;stroke-width:1;"/>
   <line x1="503" y1="335" x2="493" y2="335" style="stroke:#bbb;stroke-width:1;"/>
   <line x1="578" y1="241" x2="503" y2="335" style="stroke:#bbb;stroke-width:1;"/>
   <line x1="580.5" y1="241" x2="584.03553390593" y2="244.53553390593" style="stroke:#bbb;stroke-width:2;"/>
   <line x1="580.5" y1="241" x2="584.03553390593" y2="237.46446609407" style="stroke:#bbb;stroke-width:2;"/>
   <line x1="498" y1="335" x2="501.53553390593" y2="338.53553390593" style="stroke:#bbb;stroke-width:2;"/>
   <line x1="498" y1="335" x2="501.53553390593" y2="331.46446609407" style="stroke:#bbb;stroke-width:2;"/>
   <line x1="783" y1="221" x2="793" y2="221" style="stroke:#bbb;stroke-width:1;"/>
   <line x1="1262" y1="271" x2="1272" y2="271" style="stroke:#bbb;stroke-width:1;"/>
   <line x1="793" y1="221" x2="1262" y2="271" style="stroke:#bbb;stroke-width:1;"/>
   <line x1="790.5" y1="221" x2="786.96446609407" y2="224.53553390593" style="stroke:#bbb;stroke-width:2;"/>
   <line x1="790.5" y1="221" x2="786.96446609407" y2="217.46446609407" style="stroke:#bbb;stroke-width:2;"/>
   <line x1="1267" y1="271" x2="1263.4644660941" y2="274.53553390593" style="stroke:#bbb;stroke-width:2;"/>
   <line x1="1267" y1="271" x2="1263.4644660941" y2="267.46446609407" style="stroke:#bbb;stroke-width:2;"/>
   <line x1="788" y1="69" x2="798" y2="69" style="stroke:#333;stroke-width:1;"/>
   <line x1="1263" y1="130" x2="1273" y2="130" style="stroke:#333;stroke-width:1;"/>
   <line x1="798" y1="69" x2="1263" y2="130" style="stroke:#333;stroke-width:1;"/>
   <line x1="795.5" y1="69" x2="791.96446609407" y2="72.535533905933" style="stroke:#333;stroke-width:2;"/>
   <line x1="795.5" y1="69" x2="791.96446609407" y2="65.464466094067" style="stroke:#333;stroke-width:2;"/>
   <line x1="1268" y1="130" x2="1264.4644660941" y2="133.53553390593" style="stroke:#333;stroke-width:2;"/>
   <line x1="1268" y1="130" x2="1264.4644660941" y2="126.46446609407" style="stroke:#333;stroke-width:2;"/>
   <line x1="788" y1="89" x2="798" y2="89" style="stroke:#0bf;stroke-width:1;"/>
   <line x1="1262" y1="271" x2="1272" y2="271" style="stroke:#0bf;stroke-width:1;"/>
   <line x1="798" y1="89" x2="1262" y2="271" style="stroke:#0bf;stroke-width:1;"/>
   <line x1="795.5" y1="89" x2="791.96446609407" y2="92.535533905933" style="stroke:#0bf;stroke-width:2;"/>
   <line x1="795.5" y1="89" x2="791.96446609407" y2="85.464466094067" style="stroke:#0bf;stroke-width:2;"/>
   <line x1="1267" y1="271" x2="1263.4644660941" y2="274.53553390593" style="stroke:#0bf;stroke-width:2;"/>
   <line x1="1267" y1="271" x2="1263.4644660941" y2="267.46446609407" style="stroke:#0bf;stroke-width:2;"/>
   <line x1="475" y1="105" x2="485" y2="105" style="stroke:#c00;stroke-width:1;"/>
   <line x1="649" y1="479" x2="659" y2="479" style="stroke:#c00;stroke-width:1;"/>
   <line x1="485" y1="105" x2="649" y2="479" style="stroke:#c00;stroke-width:1;"/>
   <line x1="482.5" y1="105" x2="478.96446609407" y2="108.53553390593" style="stroke:#c00;stroke-width:2;"/>
   <line x1="482.5" y1="105" x2="478.96446609407" y2="101.46446609407" style="stroke:#c00;stroke-width:2;"/>
   <line x1="654" y1="479" x2="650.46446609407" y2="482.53553390593" style="stroke:#c00;stroke-width:2;"/>
   <line x1="654" y1="479" x2="650.46446609407" y2="475.46446609407" style="stroke:#c00;stroke-width:2;"/>
   <line x1="443" y1="247" x2="453" y2="247" style="stroke:#333;stroke-width:1;"/>
   <line x1="947" y1="574" x2="957" y2="574" style="stroke:#333;stroke-width:1;"/>
   <line x1="453" y1="247" x2="947" y2="574" style="stroke:#333;stroke-width:1;"/>
   <line x1="450.5" y1="247" x2="446.96446609407" y2="250.53553390593" style="stroke:#333;stroke-width:2;"/>
   <line x1="450.5" y1="247" x2="446.96446609407" y2="243.46446609407" style="stroke:#333;stroke-width:2;"/>
   <line x1="952" y1="574" x2="948.46446609407" y2="577.53553390593" style="stroke:#333;stroke-width:2;"/>
   <line x1="952" y1="574" x2="948.46446609407" y2="570.46446609407" style="stroke:#333;stroke-width:2;"/>
   <line x1="443" y1="227" x2="453" y2="227" style="stroke:#b0b;stroke-width:1;"/>
   <line x1="485" y1="85" x2="475" y2="85" style="stroke:#b0b;stroke-width:1;"/>
   <line x1="453" y1="227" x2="485" y2="85" style="stroke:#b0b;stroke-width:1;"/>
   <line x1="450.5" y1="227" x2="446.96446609407" y2="230.53553390593" style="stroke:#b0b;stroke-width:2;"/>
   <line x1="450.5" y1="227" x2="446.96446609407" y2="223.46446609407" style="stroke:#b0b;stroke-width:2;"/>
   <line x1="480" y1="85" x2="483.53553390593" y2="88.535533905933" style="stroke:#b0b;stroke-width:2;"/>
   <line x1="480" y1="85" x2="483.53553390593" y2="81.464466094067" style="stroke:#b0b;stroke-width:2;"/>
   <rect width="155" height="20" x="949" y="360" style="fill:#007;stroke:black;"/>
   <text width="155" height="20" x="954" y="374" style="fill:#fff;" font-family="Arial" font-size="16px"> carer</text>
   <rect width="155" height="20" x="949" y="380" style="fill:#aea;stroke:black;"/>
   <text width="155" height="20" x="954" y="394" style="fill:black;" font-family="Arial" font-size="16px">carer_id</text>
   <rect width="155" height="20" x="949" y="400" style="fill:none;stroke:black;"/>
   <text width="155" height="20" x="954" y="414" style="fill:black;" font-family="Arial" font-size="16px">carer_first_name</text>
   <rect width="155" height="20" x="949" y="420" style="fill:none;stroke:black;"/>
   <text width="155" height="20" x="954" y="434" style="fill:black;" font-family="Arial" font-size="16px">carer_last_name</text>
   <rect width="155" height="20" x="949" y="440" style="fill:none;stroke:black;"/>
   <text width="155" height="20" x="954" y="454" style="fill:black;" font-family="Arial" font-size="16px">carer_address</text>
   <rect width="155" height="20" x="949" y="460" style="fill:none;stroke:black;"/>
   <text width="155" height="20" x="954" y="474" style="fill:black;" font-family="Arial" font-size="16px">carer_postcode</text>
   <rect width="155" height="20" x="949" y="480" style="fill:none;stroke:black;"/>
   <text width="155" height="20" x="954" y="494" style="fill:black;" font-family="Arial" font-size="16px">carer_phone_number</text>
   <rect width="140" height="20" x="79" y="29" style="fill:#007;stroke:black;"/>
   <text width="140" height="20" x="84" y="43" style="fill:#fff;" font-family="Arial" font-size="16px"> carer_family_link</text>
   <rect width="140" height="20" x="79" y="49" style="fill:#aea;stroke:black;"/>
   <text width="140" height="20" x="84" y="63" style="fill:black;" font-family="Arial" font-size="16px">carer_family_link_id</text>
   <rect width="140" height="20" x="79" y="69" style="fill:none;stroke:black;"/>
   <text width="140" height="20" x="84" y="83" style="fill:black;" font-family="Arial" font-size="16px">family_id</text>
   <rect width="140" height="20" x="79" y="89" style="fill:none;stroke:black;"/>
   <text width="140" height="20" x="84" y="103" style="fill:black;" font-family="Arial" font-size="16px">carer_id</text>
   <rect width="169" height="20" x="324" y="305" style="fill:#007;stroke:black;"/>
   <text width="169" height="20" x="329" y="319" style="fill:#fff;" font-family="Arial" font-size="16px"> department</text>
   <rect width="169" height="20" x="324" y="325" style="fill:#aea;stroke:black;"/>
   <text width="169" height="20" x="329" y="339" style="fill:black;" font-family="Arial" font-size="16px">department_id</text>
   <rect width="169" height="20" x="324" y="345" style="fill:none;stroke:black;"/>
   <text width="169" height="20" x="329" y="359" style="fill:black;" font-family="Arial" font-size="16px">department_name</text>
   <rect width="169" height="20" x="324" y="365" style="fill:none;stroke:black;"/>
   <text width="169" height="20" x="329" y="379" style="fill:black;" font-family="Arial" font-size="16px">department_age_group</text>
   <rect width="138" height="20" x="617" y="279" style="fill:#007;stroke:black;"/>
   <text width="138" height="20" x="622" y="293" style="fill:#fff;" font-family="Arial" font-size="16px"> department_link</text>
   <rect width="138" height="20" x="617" y="299" style="fill:#aea;stroke:black;"/>
   <text width="138" height="20" x="622" y="313" style="fill:black;" font-family="Arial" font-size="16px">department_link_id</text>
   <rect width="138" height="20" x="617" y="319" style="fill:none;stroke:black;"/>
   <text width="138" height="20" x="622" y="333" style="fill:black;" font-family="Arial" font-size="16px">department_id</text>
   <rect width="138" height="20" x="617" y="339" style="fill:none;stroke:black;"/>
   <text width="138" height="20" x="622" y="353" style="fill:black;" font-family="Arial" font-size="16px">staff_id</text>
   <rect width="138" height="20" x="617" y="359" style="fill:none;stroke:black;"/>
   <text width="138" height="20" x="622" y="373" style="fill:black;" font-family="Arial" font-size="16px">start_date</text>
   <rect width="138" height="20" x="617" y="379" style="fill:none;stroke:black;"/>
   <text width="138" height="20" x="622" y="393" style="fill:black;" font-family="Arial" font-size="16px">end_date</text>
   <rect width="101" height="20" x="659" y="449" style="fill:#007;stroke:black;"/>
   <text width="101" height="20" x="664" y="463" style="fill:#fff;" font-family="Arial" font-size="16px"> faculty</text>
   <rect width="101" height="20" x="659" y="469" style="fill:#aea;stroke:black;"/>
   <text width="101" height="20" x="664" y="483" style="fill:black;" font-family="Arial" font-size="16px">faculty_id</text>
   <rect width="101" height="20" x="659" y="489" style="fill:none;stroke:black;"/>
   <text width="101" height="20" x="664" y="503" style="fill:black;" font-family="Arial" font-size="16px">faculty_name</text>
   <rect width="102" height="20" x="979" y="37" style="fill:#007;stroke:black;"/>
   <text width="102" height="20" x="984" y="51" style="fill:#fff;" font-family="Arial" font-size="16px"> faculty_link</text>
   <rect width="102" height="20" x="979" y="57" style="fill:#aea;stroke:black;"/>
   <text width="102" height="20" x="984" y="71" style="fill:black;" font-family="Arial" font-size="16px">faculty_link_id</text>
   <rect width="102" height="20" x="979" y="77" style="fill:none;stroke:black;"/>
   <text width="102" height="20" x="984" y="91" style="fill:black;" font-family="Arial" font-size="16px">staff_id</text>
   <rect width="102" height="20" x="979" y="97" style="fill:none;stroke:black;"/>
   <text width="102" height="20" x="984" y="111" style="fill:black;" font-family="Arial" font-size="16px">faculty_id</text>
   <rect width="102" height="20" x="979" y="117" style="fill:none;stroke:black;"/>
   <text width="102" height="20" x="984" y="131" style="fill:black;" font-family="Arial" font-size="16px">date_joined</text>
   <rect width="69" height="20" x="1273" y="100" style="fill:#007;stroke:black;"/>
   <text width="69" height="20" x="1278" y="114" style="fill:#fff;" font-family="Arial" font-size="16px"> family</text>
   <rect width="69" height="20" x="1273" y="120" style="fill:#aea;stroke:black;"/>
   <text width="69" height="20" x="1278" y="134" style="fill:black;" font-family="Arial" font-size="16px">family_id</text>
   <rect width="212" height="20" x="635" y="579" style="fill:#007;stroke:black;"/>
   <text width="212" height="20" x="640" y="593" style="fill:#fff;" font-family="Arial" font-size="16px"> line_manager</text>
   <rect width="212" height="20" x="635" y="599" style="fill:#aea;stroke:black;"/>
   <text width="212" height="20" x="640" y="613" style="fill:black;" font-family="Arial" font-size="16px">line_manager_id</text>
   <rect width="212" height="20" x="635" y="619" style="fill:none;stroke:black;"/>
   <text width="212" height="20" x="640" y="633" style="fill:black;" font-family="Arial" font-size="16px">line_manager_first_name</text>
   <rect width="212" height="20" x="635" y="639" style="fill:none;stroke:black;"/>
   <text width="212" height="20" x="640" y="653" style="fill:black;" font-family="Arial" font-size="16px">line_manager_last_name</text>
   <rect width="212" height="20" x="635" y="659" style="fill:none;stroke:black;"/>
   <text width="212" height="20" x="640" y="673" style="fill:black;" font-family="Arial" font-size="16px">line_manager_date_hired</text>
   <rect width="212" height="20" x="635" y="679" style="fill:none;stroke:black;"/>
   <text width="212" height="20" x="640" y="693" style="fill:black;" font-family="Arial" font-size="16px">line_manager_hourly_salary</text>
   <rect width="212" height="20" x="635" y="699" style="fill:none;stroke:black;"/>
   <text width="212" height="20" x="640" y="713" style="fill:black;" font-family="Arial" font-size="16px">line_manager_address</text>
   <rect width="212" height="20" x="635" y="719" style="fill:none;stroke:black;"/>
   <text width="212" height="20" x="640" y="733" style="fill:black;" font-family="Arial" font-size="16px">line_manager_postcode</text>
   <rect width="212" height="20" x="635" y="739" style="fill:none;stroke:black;"/>
   <text width="212" height="20" x="640" y="753" style="fill:black;" font-family="Arial" font-size="16px">line_manager_phone_number</text>
   <rect width="138" height="20" x="43" y="630" style="fill:#007;stroke:black;"/>
   <text width="138" height="20" x="48" y="644" style="fill:#fff;" font-family="Arial" font-size="16px"> meeting</text>
   <rect width="138" height="20" x="43" y="650" style="fill:#aea;stroke:black;"/>
   <text width="138" height="20" x="48" y="664" style="fill:black;" font-family="Arial" font-size="16px">meeting_id</text>
   <rect width="138" height="20" x="43" y="670" style="fill:none;stroke:black;"/>
   <text width="138" height="20" x="48" y="684" style="fill:black;" font-family="Arial" font-size="16px">meeting_start_time</text>
   <rect width="138" height="20" x="43" y="690" style="fill:none;stroke:black;"/>
   <text width="138" height="20" x="48" y="704" style="fill:black;" font-family="Arial" font-size="16px">meeting_duration</text>
   <rect width="152" height="20" x="43" y="309" style="fill:#007;stroke:black;"/>
   <text width="152" height="20" x="48" y="323" style="fill:#fff;" font-family="Arial" font-size="16px"> meeting_attendee</text>
   <rect width="152" height="20" x="43" y="329" style="fill:#aea;stroke:black;"/>
   <text width="152" height="20" x="48" y="343" style="fill:black;" font-family="Arial" font-size="16px">meeting_attendee_id</text>
   <rect width="152" height="20" x="43" y="349" style="fill:none;stroke:black;"/>
   <text width="152" height="20" x="48" y="363" style="fill:black;" font-family="Arial" font-size="16px">meeting_id</text>
   <rect width="152" height="20" x="43" y="369" style="fill:none;stroke:black;"/>
   <text width="152" height="20" x="48" y="383" style="fill:black;" font-family="Arial" font-size="16px">staff_id</text>
   <rect width="101" height="20" x="44" y="472" style="fill:#007;stroke:black;"/>
   <text width="101" height="20" x="49" y="486" style="fill:#fff;" font-family="Arial" font-size="16px"> pfa</text>
   <rect width="101" height="20" x="44" y="492" style="fill:#aea;stroke:black;"/>
   <text width="101" height="20" x="49" y="506" style="fill:black;" font-family="Arial" font-size="16px">pfa_id</text>
   <rect width="101" height="20" x="44" y="512" style="fill:none;stroke:black;"/>
   <text width="101" height="20" x="49" y="526" style="fill:black;" font-family="Arial" font-size="16px">carer_id</text>
   <rect width="101" height="20" x="44" y="532" style="fill:none;stroke:black;"/>
   <text width="101" height="20" x="49" y="546" style="fill:black;" font-family="Arial" font-size="16px">pfa_join_date</text>
   <rect width="101" height="20" x="44" y="552" style="fill:none;stroke:black;"/>
   <text width="101" height="20" x="49" y="566" style="fill:black;" font-family="Arial" font-size="16px">contributions</text>
   <rect width="131" height="20" x="1262" y="421" style="fill:#007;stroke:black;"/>
   <text width="131" height="20" x="1267" y="435" style="fill:#fff;" font-family="Arial" font-size="16px"> resources</text>
   <rect width="131" height="20" x="1262" y="441" style="fill:#aea;stroke:black;"/>
   <text width="131" height="20" x="1267" y="455" style="fill:black;" font-family="Arial" font-size="16px">resource_id</text>
   <rect width="131" height="20" x="1262" y="461" style="fill:none;stroke:black;"/>
   <text width="131" height="20" x="1267" y="475" style="fill:black;" font-family="Arial" font-size="16px">resource_name</text>
   <rect width="131" height="20" x="1262" y="481" style="fill:none;stroke:black;"/>
   <text width="131" height="20" x="1267" y="495" style="fill:black;" font-family="Arial" font-size="16px">resource_amount</text>
   <rect width="151" height="20" x="979" y="198" style="fill:#007;stroke:black;"/>
   <text width="151" height="20" x="984" y="212" style="fill:#fff;" font-family="Arial" font-size="16px"> resource_booking</text>
   <rect width="151" height="20" x="979" y="218" style="fill:#aea;stroke:black;"/>
   <text width="151" height="20" x="984" y="232" style="fill:black;" font-family="Arial" font-size="16px">resource_booking_id</text>
   <rect width="151" height="20" x="979" y="238" style="fill:none;stroke:black;"/>
   <text width="151" height="20" x="984" y="252" style="fill:black;" font-family="Arial" font-size="16px">resource_id</text>
   <rect width="151" height="20" x="979" y="258" style="fill:none;stroke:black;"/>
   <text width="151" height="20" x="984" y="272" style="fill:black;" font-family="Arial" font-size="16px">staff_id</text>
   <rect width="151" height="20" x="979" y="278" style="fill:none;stroke:black;"/>
   <text width="151" height="20" x="984" y="292" style="fill:black;" font-family="Arial" font-size="16px">date_out</text>
   <rect width="151" height="20" x="979" y="298" style="fill:none;stroke:black;"/>
   <text width="151" height="20" x="984" y="312" style="fill:black;" font-family="Arial" font-size="16px">number_of_days</text>
   <rect width="82" height="20" x="409" y="466" style="fill:#007;stroke:black;"/>
   <text width="82" height="20" x="414" y="480" style="fill:#fff;" font-family="Arial" font-size="16px"> role</text>
   <rect width="82" height="20" x="409" y="486" style="fill:#aea;stroke:black;"/>
   <text width="82" height="20" x="414" y="500" style="fill:black;" font-family="Arial" font-size="16px">role_id</text>
   <rect width="82" height="20" x="409" y="506" style="fill:none;stroke:black;"/>
   <text width="82" height="20" x="414" y="520" style="fill:black;" font-family="Arial" font-size="16px">role_name</text>
   <rect width="91" height="20" x="94" y="183" style="fill:#007;stroke:black;"/>
   <text width="91" height="20" x="99" y="197" style="fill:#fff;" font-family="Arial" font-size="16px"> room</text>
   <rect width="91" height="20" x="94" y="203" style="fill:#aea;stroke:black;"/>
   <text width="91" height="20" x="99" y="217" style="fill:black;" font-family="Arial" font-size="16px">room_id</text>
   <rect width="91" height="20" x="94" y="223" style="fill:none;stroke:black;"/>
   <text width="91" height="20" x="99" y="237" style="fill:black;" font-family="Arial" font-size="16px">room_name</text>
   <rect width="125" height="20" x="334" y="606" style="fill:#007;stroke:black;"/>
   <text width="125" height="20" x="339" y="620" style="fill:#fff;" font-family="Arial" font-size="16px"> room_booking</text>
   <rect width="125" height="20" x="334" y="626" style="fill:#aea;stroke:black;"/>
   <text width="125" height="20" x="339" y="640" style="fill:black;" font-family="Arial" font-size="16px">room_booking_id</text>
   <rect width="125" height="20" x="334" y="646" style="fill:none;stroke:black;"/>
   <text width="125" height="20" x="339" y="660" style="fill:black;" font-family="Arial" font-size="16px">staff_id</text>
   <rect width="125" height="20" x="334" y="666" style="fill:none;stroke:black;"/>
   <text width="125" height="20" x="339" y="680" style="fill:black;" font-family="Arial" font-size="16px">room_id</text>
   <rect width="125" height="20" x="334" y="686" style="fill:none;stroke:black;"/>
   <text width="125" height="20" x="339" y="700" style="fill:black;" font-family="Arial" font-size="16px">booking_date</text>
   <rect width="125" height="20" x="334" y="706" style="fill:none;stroke:black;"/>
   <text width="125" height="20" x="339" y="720" style="fill:black;" font-family="Arial" font-size="16px">duration</text>
   <rect width="149" height="20" x="957" y="544" style="fill:#007;stroke:black;"/>
   <text width="149" height="20" x="962" y="558" style="fill:#fff;" font-family="Arial" font-size="16px"> staff</text>
   <rect width="149" height="20" x="957" y="564" style="fill:#aea;stroke:black;"/>
   <text width="149" height="20" x="962" y="578" style="fill:black;" font-family="Arial" font-size="16px">staff_id</text>
   <rect width="149" height="20" x="957" y="584" style="fill:none;stroke:black;"/>
   <text width="149" height="20" x="962" y="598" style="fill:black;" font-family="Arial" font-size="16px">staff_first_name</text>
   <rect width="149" height="20" x="957" y="604" style="fill:none;stroke:black;"/>
   <text width="149" height="20" x="962" y="618" style="fill:black;" font-family="Arial" font-size="16px">staff_last_name</text>
   <rect width="149" height="20" x="957" y="624" style="fill:none;stroke:black;"/>
   <text width="149" height="20" x="962" y="638" style="fill:black;" font-family="Arial" font-size="16px">role_id</text>
   <rect width="149" height="20" x="957" y="644" style="fill:none;stroke:black;"/>
   <text width="149" height="20" x="962" y="658" style="fill:black;" font-family="Arial" font-size="16px">staff_date_hired</text>
   <rect width="149" height="20" x="957" y="664" style="fill:none;stroke:black;"/>
   <text width="149" height="20" x="962" y="678" style="fill:black;" font-family="Arial" font-size="16px">staff_hourly_salary</text>
   <rect width="149" height="20" x="957" y="684" style="fill:none;stroke:black;"/>
   <text width="149" height="20" x="962" y="698" style="fill:black;" font-family="Arial" font-size="16px">staff_address</text>
   <rect width="149" height="20" x="957" y="704" style="fill:none;stroke:black;"/>
   <text width="149" height="20" x="962" y="718" style="fill:black;" font-family="Arial" font-size="16px">staff_phone_number</text>
   <rect width="149" height="20" x="957" y="724" style="fill:none;stroke:black;"/>
   <text width="149" height="20" x="962" y="738" style="fill:black;" font-family="Arial" font-size="16px">line_manager_id</text>
   <rect width="149" height="20" x="957" y="744" style="fill:none;stroke:black;"/>
   <text width="149" height="20" x="962" y="758" style="fill:black;" font-family="Arial" font-size="16px">payscale</text>
   <rect width="133" height="20" x="1242" y="634" style="fill:#007;stroke:black;"/>
   <text width="133" height="20" x="1247" y="648" style="fill:#fff;" font-family="Arial" font-size="16px"> staff_family_link</text>
   <rect width="133" height="20" x="1242" y="654" style="fill:#aea;stroke:black;"/>
   <text width="133" height="20" x="1247" y="668" style="fill:black;" font-family="Arial" font-size="16px">staff_family_link_id</text>
   <rect width="133" height="20" x="1242" y="674" style="fill:none;stroke:black;"/>
   <text width="133" height="20" x="1247" y="688" style="fill:black;" font-family="Arial" font-size="16px">family_id</text>
   <rect width="133" height="20" x="1242" y="694" style="fill:none;stroke:black;"/>
   <text width="133" height="20" x="1247" y="708" style="fill:black;" font-family="Arial" font-size="16px">staff_id</text>
   <rect width="107" height="20" x="1272" y="241" style="fill:#007;stroke:black;"/>
   <text width="107" height="20" x="1277" y="255" style="fill:#fff;" font-family="Arial" font-size="16px"> student</text>
   <rect width="107" height="20" x="1272" y="261" style="fill:#aea;stroke:black;"/>
   <text width="107" height="20" x="1277" y="275" style="fill:black;" font-family="Arial" font-size="16px">student_id</text>
   <rect width="107" height="20" x="1272" y="281" style="fill:none;stroke:black;"/>
   <text width="107" height="20" x="1277" y="295" style="fill:black;" font-family="Arial" font-size="16px">carer_id</text>
   <rect width="107" height="20" x="1272" y="301" style="fill:none;stroke:black;"/>
   <text width="107" height="20" x="1277" y="315" style="fill:black;" font-family="Arial" font-size="16px">student_name</text>
   <rect width="107" height="20" x="1272" y="321" style="fill:none;stroke:black;"/>
   <text width="107" height="20" x="1277" y="335" style="fill:black;" font-family="Arial" font-size="16px">student_dob</text>
   <rect width="195" height="20" x="588" y="171" style="fill:#007;stroke:black;"/>
   <text width="195" height="20" x="593" y="185" style="fill:#fff;" font-family="Arial" font-size="16px"> student_department_link</text>
   <rect width="195" height="20" x="588" y="191" style="fill:#aea;stroke:black;"/>
   <text width="195" height="20" x="593" y="205" style="fill:black;" font-family="Arial" font-size="16px">student_department_link_id</text>
   <rect width="195" height="20" x="588" y="211" style="fill:none;stroke:black;"/>
   <text width="195" height="20" x="593" y="225" style="fill:black;" font-family="Arial" font-size="16px">student_id</text>
   <rect width="195" height="20" x="588" y="231" style="fill:none;stroke:black;"/>
   <text width="195" height="20" x="593" y="245" style="fill:black;" font-family="Arial" font-size="16px">department_id</text>
   <rect width="156" height="20" x="632" y="19" style="fill:#007;stroke:black;"/>
   <text width="156" height="20" x="637" y="33" style="fill:#fff;" font-family="Arial" font-size="16px"> student_family_link</text>
   <rect width="156" height="20" x="632" y="39" style="fill:#aea;stroke:black;"/>
   <text width="156" height="20" x="637" y="53" style="fill:black;" font-family="Arial" font-size="16px">student_family_link_id</text>
   <rect width="156" height="20" x="632" y="59" style="fill:none;stroke:black;"/>
   <text width="156" height="20" x="637" y="73" style="fill:black;" font-family="Arial" font-size="16px">family_id</text>
   <rect width="156" height="20" x="632" y="79" style="fill:none;stroke:black;"/>
   <text width="156" height="20" x="637" y="93" style="fill:black;" font-family="Arial" font-size="16px">student_id</text>
   <rect width="106" height="20" x="369" y="55" style="fill:#007;stroke:black;"/>
   <text width="106" height="20" x="374" y="69" style="fill:#fff;" font-family="Arial" font-size="16px"> subject</text>
   <rect width="106" height="20" x="369" y="75" style="fill:#aea;stroke:black;"/>
   <text width="106" height="20" x="374" y="89" style="fill:black;" font-family="Arial" font-size="16px">subject_id</text>
   <rect width="106" height="20" x="369" y="95" style="fill:none;stroke:black;"/>
   <text width="106" height="20" x="374" y="109" style="fill:black;" font-family="Arial" font-size="16px">faculty_id</text>
   <rect width="106" height="20" x="369" y="115" style="fill:none;stroke:black;"/>
   <text width="106" height="20" x="374" y="129" style="fill:black;" font-family="Arial" font-size="16px">subject_name</text>
   <rect width="107" height="20" x="336" y="177" style="fill:#007;stroke:black;"/>
   <text width="107" height="20" x="341" y="191" style="fill:#fff;" font-family="Arial" font-size="16px"> subject_link</text>
   <rect width="107" height="20" x="336" y="197" style="fill:#aea;stroke:black;"/>
   <text width="107" height="20" x="341" y="211" style="fill:black;" font-family="Arial" font-size="16px">subject_link_id</text>
   <rect width="107" height="20" x="336" y="217" style="fill:none;stroke:black;"/>
   <text width="107" height="20" x="341" y="231" style="fill:black;" font-family="Arial" font-size="16px">subject_id</text>
   <rect width="107" height="20" x="336" y="237" style="fill:none;stroke:black;"/>
   <text width="107" height="20" x="341" y="251" style="fill:black;" font-family="Arial" font-size="16px">staff_id</text>
</svg>
